Coordinates
version=1
nRows=29
nColumns=22
inDegrees=yes

Units are S.I. units (second, meters, Newtons, ...)
If the header above contains a line with 'inDegrees', this indicates whether rotational values are in degrees (yes) or radians (no).

endheader
time	pelvis_tilt	pelvis_list	pelvis_rotation	pelvis_tx	pelvis_ty	pelvis_tz	hip_flexion_r	hip_adduction_r	hip_rotation_r	knee_angle_r	ankle_angle_r	subtalar_angle_r	hip_flexion_l	hip_adduction_l	hip_rotation_l	knee_angle_l	ankle_angle_l	subtalar_angle_l	lumbar_extension	lumbar_bending	lumbar_rotation
      3.64000000	     -0.59466970	      4.49275295	    171.04652188	      0.08686529	      1.05412419	     -0.56536849	     -9.86451317	      2.05754920	     -4.36384044	    -12.61417372	     18.05482399	      2.26209323	     27.63027447	     -4.33267904	    -18.44580453	    -29.84540635	      7.72553728	     -5.35937734	     -6.79475155	     -1.20609848	      1.47001983
      3.65000000	     -0.43179408	      4.29351603	    171.37729800	      0.07749101	      1.05221505	     -0.56492799	    -10.08233725	      1.83045511	     -4.79416772	    -12.88688697	     18.34366314	      2.49541475	     27.57780812	     -4.07430272	    -19.75997559	    -27.26464673	      7.75621562	     -5.03676069	     -6.55080020	     -1.29951739	      1.52096773
      3.66000000	     -0.19451571	      4.07855175	    171.68993745	      0.06807443	      1.05018421	     -0.56433207	    -10.17029642	      1.58294150	     -5.16745087	    -13.26512841	     18.62701243	      2.66368269	     27.55085568	     -3.73209946	    -20.92061414	    -24.71320673	      7.80547697	     -4.80750516	     -6.21563584	     -1.39986751	      1.54334625
      3.67000000	     -0.07761384	      3.84761078	    171.97369329	      0.05846083	      1.04836916	     -0.56362352	    -10.38584779	      1.27874674	     -5.49588737	    -13.65736624	     18.83033558	      3.06482697	     27.31582298	     -3.30454768	    -21.98388194	    -22.20335085	      7.91288702	     -4.50676119	     -5.99919474	     -1.54563586	      1.60120799
      3.68000000	      0.15442427	      3.60022308	    172.23548210	      0.04876429	      1.04635683	     -0.56282566	    -10.42682010	      0.96307022	     -5.76017475	    -14.16252469	     19.04145407	      3.29386011	     27.17991621	     -2.83840992	    -22.89869116	    -19.85701892	      7.99858837	     -4.38981637	     -5.63768095	     -1.69779202	      1.60367836
      3.69000000	      0.25063724	      3.34020514	    172.45307099	      0.03881624	      1.04458884	     -0.56196490	    -10.60814667	      0.59162831	     -5.97152744	    -14.69320022	     19.18796022	      3.77671367	     26.83538133	     -2.32302962	    -23.69473312	    -17.66826864	      8.10184956	     -4.34934923	     -5.40946565	     -1.89802132	      1.67885567
      3.70000000	      0.35876728	      3.05894019	    172.65170776	      0.02863585	      1.04281540	     -0.56106120	    -10.75580908	      0.19342151	     -6.11151171	    -15.28730658	     19.28499138	      4.24462849	     26.49933813	     -1.79518331	    -24.39734788	    -15.78169953	      8.16251645	     -4.47222771	     -5.14151388	     -2.13411955	      1.71052035
      3.71000000	      0.43297245	      2.76479443	    172.82440703	      0.01822022	      1.04112565	     -0.56011226	    -10.91176556	     -0.23594815	     -6.21294162	    -15.95379671	     19.32929716	      4.75369548	     26.13805997	     -1.27724607	    -25.03490814	    -14.25939297	      8.14456089	     -4.73184124	     -4.89267198	     -2.40481376	      1.75787630
      3.72000000	      0.46408217	      2.45250971	    172.98536126	      0.00755011	      1.03955995	     -0.55909558	    -11.08594797	     -0.69988160	     -6.28301363	    -16.69360546	     19.30216052	      5.33942649	     25.76606543	     -0.77379260	    -25.63828963	    -13.16466448	      8.01414743	     -5.12249665	     -4.67238608	     -2.71502380	      1.80832390
      3.73000000	      0.46063355	      2.11688051	    173.15159621	     -0.00336271	      1.03814468	     -0.55798824	    -11.26779965	     -1.19844401	     -6.32658889	    -17.50685091	     19.17848789	      6.01566415	     25.41034708	     -0.28320383	    -26.21455381	    -12.52454793	      7.72716450	     -5.64087529	     -4.47480151	     -3.07041331	      1.84715386
      3.74000000	      0.43375643	      1.75161517	    173.33275498	     -0.01445950	      1.03690567	     -0.55675854	    -11.42135307	     -1.73741191	     -6.35323670	    -18.43203202	     18.95320685	      6.76237182	     25.09266221	      0.20271902	    -26.75003041	    -12.32336295	      7.25907225	     -6.25944407	     -4.29422106	     -3.47439128	      1.89186283
      3.75000000	      0.39538134	      1.35657417	    173.56075184	     -0.02575579	      1.03591675	     -0.55534267	    -11.55715972	     -2.30177900	     -6.32913871	    -19.42532821	     18.54856333	      7.64644398	     24.80436760	      0.71013748	    -27.21025078	    -12.46429819	      6.57573075	     -7.02134074	     -4.11577952	     -3.91618153	      1.87261130
      3.76000000	      0.35675620	      0.92649923	    173.82180512	     -0.03710675	      1.03520643	     -0.55373323	    -11.59685057	     -2.90939940	     -6.28616638	    -20.59033864	     17.98232814	      8.58668883	     24.54574445	      1.25524123	    -27.51715323	    -12.84980857	      5.75113707	     -7.83041918	     -3.94340191	     -4.40411782	      1.88152208
      3.77000000	      0.32580596	      0.48031275	    174.14644223	     -0.04850369	      1.03486365	     -0.55188519	    -11.56313547	     -3.51650453	     -6.13662852	    -21.86564561	     17.16211896	      9.66546311	     24.29180867	      1.85492812	    -27.58944712	    -13.34823210	      4.83839029	     -8.72539208	     -3.77010880	     -4.90679395	      1.83854245
      3.78000000	      0.31283040	      0.02308764	    174.52326055	     -0.05984826	      1.03490086	     -0.54979756	    -11.39516345	     -4.12878777	     -5.91419618	    -23.32635249	     16.10763515	     10.81607629	     24.03612342	      2.51563699	    -27.38579771	    -13.86771750	      3.97044262	     -9.60250134	     -3.59389126	     -5.41858556	      1.81030175
      3.79000000	      0.32145032	     -0.42031300	    174.95611878	     -0.07108397	      1.03533720	     -0.54743797	    -11.07806418	     -4.71682948	     -5.59190915	    -24.97627776	     14.77271254	     12.04972702	     23.76585626	      3.22603617	    -26.90275449	    -14.34264779	      3.21507736	    -10.44071493	     -3.41870140	     -5.90131253	      1.79191061
      3.80000000	      0.34073883	     -0.80008385	    175.43290952	     -0.08215619	      1.03617863	     -0.54485223	    -10.61618787	     -5.22238372	     -5.11959270	    -26.81141031	     13.14379240	     13.37469016	     23.46261487	      3.92708635	    -26.18211027	    -14.75267959	      2.58219348	    -11.23408632	     -3.26670937	     -6.30137515	      1.80144858
      3.81000000	      0.37626028	     -1.11848464	    175.94623795	     -0.09307191	      1.03734350	     -0.54205381	     -9.99163091	     -5.64926031	     -4.51355384	    -28.83917742	     11.23070821	     14.73959151	     23.13055305	      4.60896042	    -25.31157637	    -15.09373234	      2.14541016	    -11.94410874	     -3.12690364	     -6.62003855	      1.83217940
      3.82000000	      0.42280293	     -1.35825625	    176.48743350	     -0.10380916	      1.03875334	     -0.53908057	     -9.20555312	     -5.97592348	     -3.77517656	    -31.05273907	      9.06934479	     16.10629287	     22.76416977	      5.24197293	    -24.34698381	    -15.36730220	      1.89352793	    -12.56578275	     -3.00668433	     -6.84029171	      1.88178946
      3.83000000	      0.45817673	     -1.49373818	    177.02991800	     -0.11433131	      1.04035318	     -0.53601261	     -8.27785617	     -6.17205314	     -2.89388616	    -33.43745532	      6.69570231	     17.44728719	     22.34869627	      5.77733985	    -23.36475319	    -15.59023379	      1.76246105	    -13.11951500	     -2.93403889	     -6.93989436	      1.98343991
      3.84000000	      0.48083831	     -1.56024202	    177.56113780	     -0.12466317	      1.04203329	     -0.53289116	     -7.21574881	     -6.26983485	     -1.88908075	    -35.97609323	      4.19269671	     18.68689958	     21.87892958	      6.24165043	    -22.42539414	    -15.74908724	      1.77356925	    -13.61575989	     -2.90054960	     -6.96061820	      2.09450292
      3.85000000	      0.49206422	     -1.58473712	    178.08455872	     -0.13480102	      1.04369125	     -0.52970157	     -6.02706640	     -6.29964150	     -0.82520742	    -38.64983056	      1.63505028	     19.76768414	     21.35648946	      6.66355099	    -21.55050497	    -15.83291057	      1.87278951	    -14.06305752	     -2.90202934	     -6.92919473	      2.20283964
      3.86000000	      0.48164261	     -1.59824809	    178.60454781	     -0.14474857	      1.04526056	     -0.52648188	     -4.74277708	     -6.28901962	      0.25820499	    -41.42277835	     -0.91049663	     20.62910932	     20.78197059	      7.06795959	    -20.75315303	    -15.85968924	      2.03424623	    -14.46338717	     -2.94589551	     -6.89156559	      2.30229416
      3.87000000	      0.44754843	     -1.62670279	    179.13099816	     -0.15452338	      1.04669031	     -0.52321185	     -3.39082153	     -6.26588347	      1.32169354	    -44.24663989	     -3.39486676	     21.26000658	     20.14998664	      7.48403690	    -20.04261970	    -15.81902944	      2.23670108	    -14.81836127	     -3.03049856	     -6.87110579	      2.34866423
      3.88000000	      0.38809050	     -1.68642470	    179.67715496	     -0.16413175	      1.04795287	     -0.51987136	     -2.00023470	     -6.25162176	      2.32743333	    -47.06625132	     -5.75459332	     21.67858505	     19.46335042	      7.93120704	    -19.39595711	    -15.72056452	      2.46761516	    -15.12287548	     -3.15514587	     -6.88563816	      2.33891192
      3.89000000	      0.30509085	     -1.79170740	    180.26125752	     -0.17360869	      1.04905285	     -0.51643564	     -0.60551089	     -6.26352185	      3.25740884	    -49.81186949	     -7.90804450	     21.94103212	     18.71930975	      8.43023826	    -18.78209668	    -15.56078814	      2.71239119	    -15.37478225	     -3.31120399	     -6.94836903	      2.23183049
      3.90000000	      0.19979164	     -1.93641651	    180.90027812	     -0.18294870	      1.04999736	     -0.51286787	      0.76955594	     -6.30984986	      4.08008723	    -52.42809887	     -9.74109756	     22.12443966	     17.93138202	      8.97622360	    -18.15756448	    -15.37097861	      2.97679158	    -15.58635955	     -3.49661866	     -7.05043342	      2.05273148
      3.91000000	      0.07503767	     -2.11499840	    181.60196212	     -0.19218577	      1.05084244	     -0.50914677	      2.09585106	     -6.38658183	      4.81329477	    -54.84983707	    -11.14797687	     22.24730225	     17.09133765	      9.56705302	    -17.49548725	    -15.13860058	      3.24827770	    -15.74475534	     -3.70318073	     -7.17800202	      1.78103912
      3.92000000	     -0.04537880	     -2.31715853	    182.38033963	     -0.20130886	      1.05158529	     -0.50525325	      3.38631587	     -6.49750810	      5.44389503	    -57.05027316	    -12.02490032	     22.32092643	     16.23050244	     10.19195049	    -16.75738070	    -14.88286390	      3.50349353	    -15.87057508	     -3.89855685	     -7.32414561	      1.43839869
